<svg id="Layer_1" data-name="Layer 1" xmlns="http://www.w3.org/2000/svg" width="512" height="512" viewBox="0 0 512 512"><defs><style>.cls-1{fill:#0969da;}.cls-2{fill:#fff;}</style></defs><title>logo</title><rect class="cls-1" width="512" height="512" rx="64"/><path class="cls-2" d="M128,384V192H64V416a32,32,0,0,0,32,32H320V384H128Z"/><path class="cls-2" d="M256,256V64H192V288a32,32,0,0,0,32,32H448V256H256Z"/><path class="cls-2" d="M320,64h96a32,32,0,0,1,32,32v96a0,0,0,0,1,0,0H352a32,32,0,0,1-32-32V64A0,0,0,0,1,320,64Z"/></svg>